<svg xmlns="http://www.w3.org/2000/svg" version="1.0" width="300.000000pt" height="308.000000pt" viewBox="0 0 300.000000 308.000000" preserveAspectRatio="xMidYMid meet">
<metadata fill="#ffffff">
Created by potrace 1.10, written by Peter Selinger 2001-2011
</metadata>
<g transform="translate(0.000000,308.000000) scale(0.100000,-0.100000)" fill="#ffffff" stroke="none">
<path d="M1110 2951 c-6 -12 -26 -22 -50 -26 -49 -8 -49 -31 0 -27 27 2 31 0 25 -15 -22 -56 -75 -205 -75 -213 0 -6 6 -10 14 -10 9 0 22 27 35 70 12 39 23 70 26 70 2 0 15 -25 29 -56 14 -30 35 -68 46 -85 l21 -29 -110 -2 c-61 -1 -123 -3 -138 -4 -71 -7 -724 -7 -773 0 -42 6 -52 5 -44 -4 20 -20 168 -27 479 -23 250 4 373 5 620 4 11 0 81 2 156 4 l135 4 2 -277 c1 -152 3 -302 5 -332 l2 -55 -35 -2 c-259 -18 -513 -133 -681 -310 -126 -132 -216 -324 -233 -493 -9 -82 8 -62 24 30 27 155 94 297 197 417 l28 33 59 -59 c32 -33 85 -74 117 -91 33 -17 59 -32 59 -34 0 -2 -20 -51 -44 -109 -25 -58 -54 -142 -66 -186 -12 -45 -26 -81 -31 -81 -18 0 -105 44 -172 88 l-69 44 6 46 c4 26 9 64 12 86 4 26 3 36 -4 32 -6 -4 -14 -38 -18 -77 -5 -53 -10 -69 -20 -65 -15 6 -19 -6 -6 -18 4 -4 7 -71 8 -149 0 -78 4 -161 8 -185 7 -36 6 -41 -8 -36 -9 3 -16 2 -16 -4 0 -5 8 -12 18 -14 12 -4 24 -25 35 -67 20 -71 67 -169 105 -220 16 -21 21 -36 14 -39 -6 -2 -8 -10 -5 -18 7 -19 141 -124 158 -124 7 0 16 -6 18 -12 4 -9 6 -10 6 -1 1 11 -49 53 -63 53 -10 0 -56 43 -56 53 0 4 -21 38 -47 75 -41 56 -139 270 -129 279 2 2 25 -5 52 -15 27 -11 83 -27 124 -37 41 -10 76 -19 77 -20 2 -1 14 -48 29 -106 14 -57 36 -123 50 -146 14 -24 23 -43 20 -43 -2 0 -41 15 -85 34 -45 19 -81 30 -81 26 0 -7 97 -50 163 -73 10 -4 25 -24 33 -44 21 -54 29 -66 45 -71 9 -2 10 -1 3 5 -13 9 -46 84 -40 90 2 2 28 -3 57 -11 30 -8 83 -20 119 -26 36 -6 74 -13 86 -15 13 -3 28 -20 39 -45 10 -22 24 -45 32 -52 8 -6 19 -20 24 -30 10 -18 6 -19 -53 -14 -65 4 -148 25 -212 51 -20 8 -38 15 -41 15 -3 0 -33 14 -66 31 -34 16 -63 28 -66 25 -7 -6 95 -65 127 -72 14 -4 44 -15 67 -25 111 -50 385 -74 518 -46 158 34 321 95 369 139 11 10 23 18 27 18 4 0 25 15 47 33 22 17 48 37 58 43 11 6 15 15 10 23 -6 9 -16 5 -40 -17 -36 -34 -123 -92 -137 -92 -5 0 -9 -3 -9 -7 0 -10 -49 -33 -69 -33 -8 0 -34 -11 -57 -25 -24 -14 -46 -25 -49 -24 -16 3 -103 -26 -99 -33 3 -4 -9 -8 -26 -8 -18 0 -30 3 -28 8 2 4 16 32 31 63 27 56 28 57 87 68 34 7 90 23 126 37 l65 24 -12 -22 c-6 -13 -21 -34 -33 -47 l-21 -24 21 11 c12 6 29 28 38 47 19 39 40 51 177 99 41 14 66 20 57 12 -16 -12 -25 -36 -14 -36 2 0 24 20 48 45 25 25 48 42 53 37 4 -4 5 -2 2 4 -4 6 18 48 47 92 87 130 126 258 128 418 1 96 -19 263 -33 278 -5 6 -9 16 -9 24 0 27 -73 158 -128 230 -171 224 -427 359 -722 379 l-85 6 5 51 c3 28 3 112 0 186 -3 74 -3 201 -1 283 l3 147 64 0 c62 0 63 -1 55 -22 -11 -32 -8 -91 5 -95 7 -2 14 19 18 57 4 36 12 60 19 60 236 4 357 3 357 -3 0 -5 9 -5 20 -2 20 6 193 13 389 14 52 1 92 4 88 7 -5 6 -338 10 -442 5 -27 -1 -133 -2 -234 -2 -172 0 -183 2 -176 18 4 10 17 45 30 78 13 33 36 84 51 113 21 40 24 56 16 64 -13 13 -22 6 -144 -111 -32 -30 -60 -53 -62 -50 -3 3 15 47 40 98 47 95 51 123 21 129 -13 3 -16 -2 -15 -20 2 -18 -1 -22 -17 -19 -11 2 -51 2 -90 0 -38 -1 -100 -3 -136 -3 -58 0 -65 -3 -61 -18 5 -20 55 -24 110 -9 17 5 32 8 32 6 0 -2 -12 -36 -26 -77 -36 -100 -48 -153 -41 -172 11 -29 27 -17 27 20 0 19 11 63 24 97 32 83 40 110 38 125 -3 12 24 16 83 12 56 -4 58 -11 15 -84 -43 -74 -46 -86 -28 -104 22 -22 39 -13 109 58 38 39 71 70 74 70 3 0 -4 -19 -16 -42 -12 -24 -32 -72 -45 -108 l-22 -65 -89 -5 c-48 -3 -153 -4 -231 -2 l-144 3 -43 91 -42 92 64 21 c71 24 99 45 90 69 -9 22 -55 38 -94 34 -27 -3 -33 0 -33 14 0 24 -17 23 -30 -1z m130 -51 c0 -9 -73 -44 -112 -54 -16 -4 -28 -2 -28 3 0 25 25 60 44 63 33 5 96 -3 96 -12z m520 -1006 c99 -23 147 -41 240 -90 117 -62 172 -105 276 -215 48 -52 134 -181 134 -203 0 -6 7 -24 16 -41 58 -111 74 -344 34 -495 -13 -47 -23 -86 -24 -86 -1 -1 -11 -5 -23 -8 -21 -7 -21 -5 -12 26 14 48 9 180 -10 276 l-17 83 44 20 c25 10 43 22 40 25 -4 3 -24 -4 -45 -14 l-39 -20 -43 171 c-24 95 -48 176 -52 181 -14 15 -12 7 31 -164 22 -88 40 -168 40 -178 0 -14 -13 -24 -42 -35 -73 -27 -159 -49 -166 -43 -3 4 -25 66 -48 139 -24 72 -52 156 -63 184 l-21 53 31 15 c35 19 199 135 199 142 0 6 -13 -2 -128 -79 l-102 -69 -16 38 c-57 136 -72 167 -83 171 -8 3 -6 -9 7 -34 22 -44 72 -164 72 -174 0 -13 -176 -78 -184 -69 -5 6 -81 243 -81 253 0 4 25 16 55 25 59 19 204 91 197 98 -3 2 -42 -14 -88 -36 -46 -23 -105 -47 -131 -55 l-47 -14 -26 69 c-15 38 -31 69 -36 69 -12 0 -12 0 16 -64 14 -31 25 -61 25 -66 0 -11 -136 -13 -216 -4 l-52 6 14 52 c8 28 14 60 14 71 -1 33 -16 -2 -29 -66 l-12 -57 -57 15 c-74 19 -164 57 -213 90 -22 14 -42 24 -45 21 -6 -7 79 -62 136 -87 25 -11 74 -28 108 -37 60 -17 63 -19 59 -43 -3 -14 -15 -77 -28 -140 l-24 -114 -65 6 c-53 4 -183 39 -199 53 -5 5 15 53 65 156 23 48 39 90 35 93 -8 4 -111 -204 -111 -224 0 -35 -114 27 -186 100 l-59 61 55 49 c55 50 224 157 258 164 10 2 36 11 58 20 21 9 82 25 134 35 112 23 322 20 430 -6z m-140 -242 l85 3 43 -129 c23 -71 40 -132 36 -135 -3 -3 -100 -7 -215 -9 l-210 -4 6 38 c4 22 11 53 15 69 5 17 14 57 20 90 19 99 13 93 78 83 31 -5 95 -7 142 -6z m441 -383 c32 -96 58 -179 59 -185 0 -10 -39 -21 -211 -59 l-56 -12 -17 156 c-10 86 -20 171 -23 189 -5 28 -3 32 18 32 13 0 53 14 89 29 36 16 69 28 74 27 5 -1 36 -81 67 -177z m-914 136 c43 -14 104 -29 136 -32 31 -3 57 -9 57 -12 -1 -3 -7 -33 -15 -66 -8 -33 -22 -111 -30 -174 -8 -63 -17 -117 -20 -119 -5 -5 -163 13 -263 30 -35 6 -66 16 -68 23 -8 20 23 129 73 258 25 64 47 117 49 117 2 0 38 -11 81 -25z m647 -52 c10 -46 24 -163 31 -254 7 -84 7 -86 -16 -93 -38 -12 -482 -18 -498 -8 -12 8 -11 28 3 128 10 66 23 146 29 178 l13 60 198 2 c109 2 201 6 204 9 14 13 31 3 36 -22z m-1065 -219 c30 -20 84 -51 120 -68 l66 -31 0 -75 c0 -41 3 -110 7 -152 l8 -77 -53 15 c-165 47 -187 55 -197 75 -14 26 -27 349 -14 349 5 0 34 -16 63 -36z m1631 -6 c0 -2 7 -39 15 -83 18 -91 21 -238 6 -276 -8 -22 -24 -31 -93 -52 -144 -45 -137 -45 -132 0 12 113 7 277 -11 334 -4 12 10 19 67 33 40 9 84 23 98 31 22 13 50 20 50 13z m-220 -170 c11 -89 8 -263 -5 -276 -7 -8 -148 -21 -223 -22 l-74 0 7 30 c4 16 7 92 7 168 l1 139 106 23 c58 13 115 27 126 31 40 15 43 11 55 -93z m-1054 47 c60 -8 128 -18 151 -21 l42 -5 0 -151 1 -151 -47 7 c-131 17 -262 39 -272 45 -17 11 -31 105 -31 208 0 95 0 95 24 89 13 -3 72 -13 132 -21z m754 -98 c0 -45 -3 -120 -7 -166 l-6 -84 -259 5 c-142 3 -262 8 -265 12 -3 3 -8 72 -11 154 l-5 148 224 0 c123 1 244 5 269 11 25 5 48 8 53 6 4 -2 7 -41 7 -86z m550 -234 c-22 -43 -52 -91 -67 -108 l-25 -30 19 35 c11 19 31 62 44 95 22 57 42 85 61 85 5 0 -9 -35 -32 -77z m-20 52 c0 -10 -79 -186 -93 -208 -10 -15 -45 -33 -110 -55 -53 -18 -104 -35 -113 -39 -11 -4 -2 21 29 78 25 46 50 103 57 125 12 40 15 42 69 54 31 6 76 19 101 30 49 20 60 22 60 15z m-1222 -46 l142 -23 0 -32 c0 -42 27 -183 45 -234 8 -22 10 -40 5 -40 -20 0 -170 31 -227 47 -60 17 -62 19 -87 73 -22 45 -66 202 -66 234 0 4 10 6 23 3 12 -3 86 -16 165 -28z m444 -36 c125 -3 228 -10 228 -14 0 -18 -40 -207 -52 -249 l-14 -45 -170 1 c-219 1 -220 1 -238 67 -16 56 -31 133 -41 211 l-7 49 33 -7 c18 -3 136 -9 261 -13z m534 -10 c-4 -16 -28 -71 -54 -125 -47 -96 -47 -96 -102 -116 -82 -31 -200 -62 -200 -53 0 4 5 22 11 40 6 18 21 82 33 144 l22 112 120 11 c189 18 177 18 170 -13z m-485 -318 l106 0 -23 -49 c-35 -76 -39 -78 -161 -83 l-108 -5 -19 34 c-11 18 -30 52 -43 75 l-24 42 83 -7 c46 -4 131 -7 189 -7z" fill="#ffffff"/>
<path d="M567 2941 c-3 -15 -13 -21 -31 -21 -31 0 -35 -20 -6 -27 22 -6 25 -14 11 -28 -9 -11 -55 -142 -65 -187 -6 -28 10 -41 19 -15 42 122 44 125 83 131 20 3 43 7 51 8 26 3 102 84 95 101 -7 20 -77 41 -105 32 -14 -5 -25 -1 -33 11 -12 16 -13 15 -19 -5z m133 -36 c0 -3 -7 -17 -16 -30 -15 -23 -121 -72 -132 -61 -7 8 19 69 36 84 15 11 112 18 112 7z" fill="#ffffff"/>
<path d="M1934 2943 c-4 -16 -14 -23 -30 -23 -29 0 -32 -20 -4 -27 25 -7 25 -8 -1 -45 -12 -16 -18 -32 -15 -35 3 -3 2 -11 -3 -17 -8 -10 -32 -76 -37 -101 -1 -5 -3 -14 -5 -20 -2 -5 1 -12 6 -14 6 -3 22 24 37 60 21 50 32 65 50 67 13 2 30 6 38 9 8 3 19 5 24 4 4 -1 28 15 52 34 68 56 55 95 -33 98 -29 1 -53 8 -60 17 -11 13 -13 12 -19 -7z m126 -46 c0 -20 -40 -52 -88 -70 -23 -10 -47 -17 -52 -17 -15 0 21 89 38 93 40 11 102 7 102 -6z" fill="#ffffff"/>
<path d="M867 2883 c-83 -120 -86 -123 -145 -125 -29 -1 -52 -6 -52 -10 0 -15 34 -26 57 -17 30 11 29 3 -7 -38 -32 -36 -38 -53 -17 -53 6 0 27 22 45 49 34 50 63 64 117 54 20 -4 22 -9 17 -49 -3 -29 -1 -44 7 -44 6 0 11 17 11 39 0 22 7 46 15 54 8 9 10 17 5 19 -7 2 -5 32 4 87 22 125 11 132 -57 34z m40 -17 c-3 -7 -9 -34 -12 -60 -7 -46 -8 -46 -46 -46 -30 0 -37 3 -33 15 4 8 10 15 14 15 5 0 21 20 37 45 26 42 52 62 40 31z" fill="#ffffff"/>
<path d="M2259 2928 c-7 -13 -37 -56 -67 -95 -56 -76 -67 -81 -144 -75 -22 2 -22 -2 -3 -22 12 -11 22 -13 40 -6 33 12 31 5 -5 -37 -27 -31 -32 -53 -11 -53 4 0 22 22 39 49 33 50 63 64 118 53 21 -4 23 -8 17 -48 -3 -27 -2 -44 4 -44 6 0 13 21 16 46 2 26 10 50 17 54 9 5 9 9 1 11 -8 3 -7 27 3 88 8 47 13 88 10 93 -9 14 -23 9 -35 -14z m-1 -110 l-10 -58 -39 0 -39 0 47 60 c25 33 47 59 49 58 1 -2 -2 -29 -8 -60z" fill="#ffffff"/>
<path d="M2447 2906 c-4 -24 -18 -70 -33 -101 -39 -86 -53 -131 -45 -143 5 -9 32 -8 101 4 52 8 96 17 99 19 12 13 -14 15 -88 7 -44 -4 -81 -5 -81 -1 0 4 12 33 26 65 14 33 30 68 34 79 15 35 29 98 24 107 -14 22 -32 5 -37 -36z" fill="#ffffff"/>
<path d="M477 763 c-9 -77 -34 -123 -68 -123 -10 0 -19 -4 -19 -10 0 -5 6 -10 14 -10 26 0 76 -61 88 -106 14 -49 28 -58 28 -17 0 41 33 143 46 143 7 0 15 7 18 16 11 28 7 35 -12 25 -34 -18 -75 33 -82 102 l-6 52 -7 -72z m39 -76 c16 -24 19 -38 12 -51 -8 -14 -14 -43 -17 -79 -1 -5 -18 9 -38 30 l-38 38 23 28 c12 16 22 37 22 48 0 28 12 23 36 -14z" fill="#ffffff"/>
<path d="M622 723 c3 -5 10 -22 17 -40 7 -17 18 -34 26 -36 7 -3 3 12 -12 39 -14 24 -27 44 -30 44 -2 0 -3 -3 -1 -7z" fill="#ffffff"/>
<path d="M700 593 c0 -9 59 -93 65 -93 2 0 -8 20 -22 45 -24 44 -43 65 -43 48z" fill="#ffffff"/>
</g>
</svg>