<?xml version="1.0" standalone="no"?>
<!DOCTYPE svg PUBLIC "-//W3C//DTD SVG 20010904//EN"
 "http://www.w3.org/TR/2001/REC-SVG-20010904/DTD/svg10.dtd">
<svg version="1.0" xmlns="http://www.w3.org/2000/svg"
 width="822.000000pt" height="822.000000pt" viewBox="0 0 822.000000 822.000000"
 preserveAspectRatio="xMidYMid meet">
<metadata>
Created by potrace 1.14, written by Peter Selinger 2001-2017
</metadata>
<g transform="translate(0.000000,822.000000) scale(0.100000,-0.100000)"
fill="#000000" stroke="none">
<path d="M3100 7907 c-10 -12 -27 -32 -38 -44 -19 -22 -59 -43 -97 -50 -47 -9
-92 -24 -109 -36 -17 -12 -17 -15 -2 -29 11 -12 32 -15 75 -13 86 3 90 -2 62
-77 -48 -130 -163 -454 -168 -473 -3 -11 -6 -33 -7 -50 -1 -39 34 -47 56 -13
18 29 58 124 64 151 6 31 53 170 63 186 10 16 8 19 108 -180 34 -70 83 -157
107 -193 l44 -66 -31 -1 c-340 -6 -440 -8 -592 -15 -381 -18 -2098 -10 -2192
10 -12 3 -24 -1 -27 -9 -13 -34 134 -59 409 -70 130 -6 853 -5 1300 1 193 3
357 5 365 4 114 -1 214 1 218 5 2 2 13 0 23 -6 11 -5 19 -6 19 -2 0 4 71 7
157 5 87 -1 163 -2 168 -2 6 -1 45 1 88 2 44 2 81 0 84 -5 2 -4 8 -5 13 -2 6
3 103 8 217 10 115 2 308 7 431 10 l222 6 1 -158 c3 -693 15 -1495 23 -1565 2
-14 0 -31 -3 -36 -3 -6 -43 -13 -87 -16 -89 -6 -136 -12 -234 -27 -130 -20
-158 -26 -345 -72 -5 -1 -16 -6 -22 -10 -7 -5 -13 -6 -13 -3 0 7 -250 -80
-315 -109 -27 -13 -81 -37 -120 -55 -153 -70 -365 -202 -545 -340 -58 -45
-285 -269 -325 -322 -22 -28 -44 -56 -50 -62 -5 -6 -19 -25 -31 -41 -11 -17
-37 -54 -58 -84 -44 -62 -158 -264 -187 -330 -11 -25 -24 -55 -29 -66 -34 -77
-48 -115 -43 -115 3 0 1 -6 -4 -12 -20 -26 -88 -262 -98 -342 -3 -21 -7 -41
-9 -45 -5 -7 -16 -110 -21 -189 -3 -36 0 -52 7 -50 14 5 44 90 52 146 8 63 66
310 83 356 8 23 16 48 18 57 13 61 133 320 206 444 49 84 167 246 235 325 12
14 32 37 45 53 l24 27 132 -128 c130 -126 240 -214 338 -268 51 -28 119 -67
144 -83 11 -7 -6 -59 -92 -272 -106 -267 -133 -341 -181 -504 -39 -131 -67
-208 -82 -224 -11 -12 -21 -10 -71 10 -94 37 -238 115 -383 207 -74 47 -149
93 -166 104 -30 18 -31 19 -23 71 5 28 11 77 15 107 3 30 8 64 10 75 6 27 17
134 18 165 1 14 -3 27 -9 30 -18 9 -40 -83 -60 -245 -11 -95 -17 -114 -36
-120 -10 -4 -23 -4 -28 -1 -16 10 -22 -27 -7 -43 18 -20 24 -109 32 -466 5
-270 9 -340 19 -425 13 -107 14 -105 -24 -105 -48 0 -50 -20 -4 -44 46 -23 66
-56 100 -163 66 -215 159 -416 272 -587 60 -92 70 -116 51 -123 -6 -2 -12 -13
-14 -25 -6 -28 47 -84 179 -190 118 -95 221 -163 246 -163 10 0 26 -11 37 -25
26 -33 36 -32 18 3 -8 16 -33 44 -56 63 -42 34 -59 45 -113 70 -52 24 -107 80
-148 152 -23 40 -61 100 -84 134 -92 132 -205 347 -299 568 -26 61 -51 119
-56 130 -5 11 -12 32 -14 47 -3 15 -7 32 -11 38 -11 18 17 11 169 -40 81 -28
221 -68 310 -90 88 -22 170 -44 181 -49 14 -6 27 -37 52 -127 18 -65 35 -128
37 -139 20 -111 96 -329 150 -430 32 -60 41 -85 30 -85 -8 0 -76 25 -152 56
-167 69 -274 105 -269 91 5 -16 106 -65 277 -134 85 -34 166 -72 179 -85 13
-13 37 -52 54 -88 62 -140 78 -167 105 -181 15 -7 31 -15 36 -18 5 -2 -2 11
-16 30 -33 45 -86 155 -94 198 l-7 33 39 -5 c21 -3 77 -15 124 -26 47 -12 96
-24 110 -27 14 -3 33 -7 42 -10 10 -3 30 -7 45 -10 16 -2 48 -8 73 -14 25 -5
100 -19 167 -30 114 -21 125 -24 152 -55 16 -18 41 -57 55 -86 42 -84 53 -101
83 -133 47 -49 71 -86 68 -104 -2 -14 -13 -17 -56 -16 -69 2 -195 12 -234 19
-97 18 -258 61 -343 92 -53 19 -122 44 -152 55 -30 11 -98 40 -150 65 -159 76
-230 104 -230 89 0 -14 20 -29 87 -67 128 -73 171 -93 270 -128 61 -21 126
-46 144 -54 79 -36 267 -88 364 -102 23 -3 50 -7 60 -9 157 -28 319 -40 555
-41 210 0 304 6 400 25 30 6 66 13 80 15 14 2 82 20 151 39 341 94 615 204
739 298 30 23 76 54 101 68 25 15 104 71 175 125 92 70 130 105 132 122 2 12
9 23 16 23 7 0 49 34 92 77 93 91 163 146 178 140 6 -3 12 6 12 19 2 30 51
124 119 229 57 88 147 241 146 250 -1 2 12 31 28 62 54 108 119 319 146 478
27 162 27 551 0 760 -21 162 -28 200 -41 251 -8 32 -19 63 -24 69 -5 6 -14 33
-20 60 -15 70 -100 240 -201 405 -203 330 -491 621 -804 814 -49 31 -94 59
-100 63 -51 40 -401 191 -525 226 -153 44 -365 91 -430 96 -8 0 -33 3 -55 6
-22 3 -62 7 -90 9 -27 2 -90 7 -140 12 -49 4 -102 7 -117 7 -16 0 -29 4 -29
11 -2 19 2 100 6 125 2 13 4 85 4 160 -4 899 -4 1349 -1 1412 l3 75 156 -2
c174 -1 179 -4 157 -66 -17 -50 -14 -209 5 -232 10 -12 17 -13 26 -6 12 10 30
88 40 172 5 44 22 109 32 123 9 12 63 13 528 14 367 0 412 -1 443 -18 11 -6
21 -9 23 -7 19 19 268 31 844 42 187 3 354 7 370 9 17 1 43 3 59 4 53 2 19 13
-56 18 -69 5 -896 6 -1673 3 -380 -2 -504 3 -516 21 -6 10 59 196 101 286 11
24 20 45 20 47 0 3 31 69 68 148 89 185 95 214 48 231 -21 8 -82 -35 -177
-125 -175 -164 -267 -249 -294 -269 -16 -13 -33 -27 -36 -32 -4 -5 -11 -8 -17
-6 -11 5 40 131 120 299 30 63 61 133 68 155 30 90 15 145 -42 145 -24 0 -28
-4 -29 -27 -1 -16 -1 -34 0 -41 3 -22 -19 -41 -42 -36 -25 5 -160 5 -352 0
-71 -3 -188 -5 -260 -6 -143 -3 -166 -9 -160 -42 8 -41 52 -56 150 -52 72 2
83 4 173 27 37 10 52 11 52 3 0 -7 -18 -63 -41 -126 -134 -377 -160 -504 -117
-563 11 -15 16 -16 30 -5 17 13 21 29 32 135 6 48 36 144 125 394 17 48 32
104 33 125 5 54 30 65 143 62 113 -2 177 -14 192 -34 16 -22 -2 -68 -75 -196
-107 -186 -117 -225 -73 -272 60 -64 95 -43 352 210 69 68 129 124 133 124 4
0 2 -9 -4 -20 -6 -11 -9 -20 -6 -20 3 0 -11 -31 -30 -70 -40 -82 -82 -185
-135 -334 -21 -61 -42 -113 -47 -118 -4 -4 -64 -11 -132 -14 -149 -8 -941 -12
-954 -5 -5 2 -40 4 -78 4 l-68 -1 -34 72 c-42 88 -96 203 -151 322 l-43 92
112 37 c209 70 286 115 301 176 16 63 -107 123 -247 121 -82 -2 -98 7 -98 56
0 30 -28 35 -50 9z m273 -148 c26 -6 47 -13 47 -16 0 -18 -112 -80 -216 -119
-66 -24 -140 -38 -156 -28 -13 8 29 105 59 136 15 16 41 32 58 37 38 10 145 5
208 -10z m1182 -2664 c62 -8 211 -32 245 -40 37 -8 67 -14 96 -20 92 -19 322
-107 459 -174 360 -179 577 -341 835 -628 141 -156 327 -438 356 -542 9 -31
29 -81 44 -111 51 -102 106 -304 124 -450 25 -210 26 -502 2 -660 -2 -14 -6
-43 -10 -65 -6 -45 -59 -256 -82 -325 -13 -42 -18 -47 -60 -58 -26 -7 -49 -10
-52 -8 -4 5 4 56 24 151 7 32 7 254 0 330 -21 222 -23 241 -41 325 -8 36 -14
71 -20 105 -3 17 -8 37 -10 45 -21 73 -20 74 63 110 93 41 142 69 142 81 0 15
-49 -1 -132 -42 -88 -44 -93 -45 -95 -21 -1 9 -9 44 -18 77 -9 33 -18 67 -20
75 -3 14 -112 439 -120 470 -3 8 -13 47 -24 85 -30 107 -60 198 -71 215 -10
15 -11 13 -13 -22 -2 -16 32 -165 44 -198 5 -14 11 -35 14 -48 2 -12 11 -50
20 -85 20 -77 95 -393 101 -427 3 -14 9 -43 14 -65 16 -70 12 -102 -15 -124
-26 -20 -170 -79 -214 -87 -14 -3 -28 -7 -32 -10 -18 -11 -227 -60 -254 -59
l-30 0 -107 320 c-143 428 -163 485 -204 588 -33 85 -36 107 -11 107 39 0 597
387 581 403 -8 8 -55 -21 -337 -210 -142 -95 -262 -173 -266 -173 -4 0 -38 73
-76 163 -123 291 -171 387 -196 387 -17 0 -9 -21 71 -202 44 -99 80 -182 80
-185 0 -3 6 -19 14 -36 25 -56 46 -117 46 -131 0 -23 -274 -142 -370 -160 -3
-1 -9 -4 -15 -8 -5 -3 -31 -9 -56 -13 -45 -7 -46 -6 -60 27 -7 18 -14 38 -15
43 -1 6 -22 71 -47 145 -101 307 -140 443 -131 458 6 8 46 28 89 44 188 70
400 166 510 232 62 37 60 35 52 42 -9 9 -65 -15 -297 -124 -30 -14 -57 -27
-60 -27 -3 -1 -16 -6 -30 -12 -14 -6 -47 -20 -75 -30 -27 -11 -59 -23 -70 -28
-11 -4 -27 -9 -35 -11 -8 -2 -41 -12 -73 -22 l-58 -20 -11 27 c-5 14 -23 62
-39 106 -43 117 -101 229 -121 233 -13 3 -16 -2 -13 -20 6 -28 55 -149 67
-162 4 -6 8 -18 8 -27 0 -10 3 -19 8 -21 4 -1 15 -27 26 -56 14 -41 16 -56 7
-65 -13 -13 -457 -16 -566 -4 -95 10 -135 18 -135 26 0 4 7 30 15 57 46 158
66 276 47 288 -9 6 -37 -56 -46 -104 -3 -14 -8 -36 -11 -50 -3 -14 -8 -36 -11
-50 -3 -14 -9 -41 -13 -60 -5 -19 -12 -48 -15 -63 -5 -22 -11 -27 -24 -22 -9
4 -28 9 -40 11 -184 35 -492 157 -647 256 -61 39 -124 67 -130 58 -10 -17 195
-151 325 -212 82 -39 301 -114 385 -132 6 -1 27 -8 48 -16 55 -21 56 -32 21
-205 -2 -11 -6 -31 -9 -45 -8 -39 -14 -71 -25 -126 -6 -28 -13 -64 -16 -80 -3
-16 -18 -90 -35 -163 -16 -74 -29 -137 -29 -139 0 -2 -12 -1 -27 2 -16 4 -63
8 -106 11 -44 3 -111 12 -150 21 -40 8 -81 17 -92 19 -11 2 -38 9 -60 15 -22
6 -47 12 -55 14 -8 2 -42 12 -75 22 -33 10 -62 18 -65 19 -3 1 -22 9 -42 17
-36 16 -37 18 -27 50 6 18 14 42 19 53 33 77 49 116 50 120 0 3 18 40 39 82
97 195 170 373 153 373 -8 0 -27 -30 -74 -115 -38 -67 -178 -353 -178 -363 0
-4 -7 -20 -15 -35 -8 -16 -20 -47 -25 -69 -11 -39 -12 -40 -51 -34 -104 15
-293 140 -466 311 -125 122 -146 148 -124 157 4 2 42 33 83 70 116 105 239
195 430 315 119 74 308 178 308 168 0 -2 44 11 98 31 91 34 142 50 181 59 9 2
52 13 96 25 104 26 231 48 325 56 41 3 77 8 79 10 6 6 569 -3 626 -11z m-500
-670 c84 -14 403 -20 542 -11 28 2 55 0 60 -3 8 -5 98 -259 108 -306 3 -11 9
-31 14 -45 10 -25 63 -196 67 -215 1 -5 9 -36 17 -67 8 -32 11 -60 7 -63 -18
-11 -297 -22 -798 -30 l-334 -6 6 28 c3 15 8 46 11 68 3 22 8 48 11 57 3 9 7
26 9 37 3 12 7 31 11 44 3 12 7 31 8 42 2 11 9 40 15 65 6 25 14 56 17 70 2
14 7 33 10 43 3 10 8 34 10 54 7 53 33 173 46 206 18 47 40 51 163 32z m1389
-587 c23 -35 79 -188 166 -448 136 -410 161 -492 149 -506 -16 -19 -117 -48
-362 -104 -122 -28 -248 -57 -279 -64 -42 -10 -58 -11 -59 -2 0 6 -2 18 -4 26
-1 8 -6 47 -9 85 -4 39 -9 84 -12 100 -2 17 -6 57 -10 90 -3 33 -7 74 -9 90
-2 17 -6 50 -9 75 -2 25 -7 63 -10 85 -3 22 -8 60 -10 85 -11 103 -20 171 -34
265 -10 65 -5 84 21 89 95 20 142 35 282 91 88 35 163 64 167 64 4 1 14 -9 22
-21z m-2294 -82 c179 -54 271 -76 380 -91 102 -13 158 -28 155 -39 -5 -12 -15
-60 -20 -93 -2 -11 -6 -30 -9 -41 -4 -11 -9 -33 -11 -48 -3 -16 -12 -58 -19
-94 -8 -36 -17 -78 -20 -95 -2 -16 -5 -30 -6 -30 -1 0 -3 -13 -4 -30 -2 -16
-8 -63 -15 -103 -6 -40 -13 -94 -16 -120 -3 -26 -8 -58 -11 -72 -2 -14 -7 -45
-10 -70 -3 -25 -10 -70 -17 -100 l-12 -55 -50 1 c-47 1 -163 11 -230 20 -16 2
-50 6 -75 9 -82 10 -196 26 -225 31 -11 2 -40 7 -65 10 -68 9 -160 31 -203 49
l-39 16 5 62 c5 59 24 137 63 257 10 30 18 60 20 65 5 21 39 117 96 270 64
170 69 183 116 287 l30 67 39 -14 c21 -8 90 -30 153 -49z m1732 -103 c17 -31
40 -147 52 -273 3 -25 7 -61 10 -80 3 -19 8 -62 12 -95 3 -33 8 -76 10 -95 5
-42 11 -115 19 -235 12 -162 12 -163 -30 -180 -64 -27 -327 -39 -906 -39 -360
-1 -429 1 -444 14 -15 13 -17 26 -11 110 3 52 7 106 10 120 2 14 7 44 10 66
12 94 86 534 102 602 l16 72 82 0 c246 1 698 10 811 16 165 8 173 9 181 17 18
18 60 6 76 -20z m-2823 -629 c141 -88 454 -254 480 -254 6 0 11 -12 11 -27 4
-305 15 -579 25 -633 2 -14 7 -55 11 -92 l6 -68 -29 10 c-15 5 -93 27 -173 50
-165 47 -176 50 -285 86 -128 42 -172 68 -181 106 -4 18 -8 35 -9 38 -2 9 -16
133 -20 185 -14 167 -23 605 -14 673 2 12 8 22 14 22 6 0 80 -43 164 -96z
m4348 -18 c4 -4 8 -15 9 -24 0 -9 3 -30 7 -47 7 -34 15 -73 23 -125 3 -19 7
-42 9 -50 3 -8 7 -37 11 -65 3 -27 8 -63 11 -80 2 -16 6 -129 8 -250 6 -296
-6 -344 -100 -390 -40 -19 -179 -69 -230 -81 -5 -2 -57 -17 -115 -34 -128 -38
-140 -40 -162 -28 -14 7 -16 18 -13 51 22 187 23 663 1 782 -2 11 -9 50 -16
88 -9 50 -9 71 -1 81 12 14 37 22 246 81 71 19 152 46 180 59 103 47 115 50
132 32z m-629 -213 c15 -41 30 -96 30 -113 0 -15 4 -46 17 -140 8 -59 20 -449
15 -470 -1 -3 -3 -39 -5 -80 -4 -107 -14 -159 -33 -169 -25 -13 -100 -25 -227
-36 -44 -4 -93 -9 -110 -11 -60 -7 -445 -12 -445 -6 0 4 5 24 10 44 16 57 20
126 25 497 2 189 6 345 8 348 2 2 13 5 23 7 11 2 47 11 82 20 34 9 67 14 72
11 6 -3 10 -2 10 3 0 5 6 9 13 9 36 1 435 98 446 108 2 3 17 5 31 5 21 0 30
-7 38 -27z m-3047 -68 c3 -3 26 -7 50 -10 24 -3 69 -9 99 -15 30 -5 78 -12
105 -15 28 -3 58 -8 67 -11 9 -3 34 -7 55 -9 69 -7 127 -14 168 -21 22 -4 51
-8 65 -9 14 -1 50 -6 80 -10 30 -5 65 -8 78 -8 12 -1 23 -3 23 -6 1 -4 2 -185
3 -404 l2 -398 -36 5 c-94 14 -180 26 -225 31 -27 4 -59 8 -70 10 -11 2 -42 6
-70 10 -27 4 -59 9 -70 11 -11 2 -38 6 -60 9 -22 3 -51 7 -65 10 -14 3 -68 12
-120 21 -52 9 -107 23 -122 30 -42 21 -67 115 -84 314 -10 110 -10 440 -1 463
6 17 14 18 64 12 32 -3 60 -8 64 -10z m2282 -112 c6 -42 0 -547 -7 -603 -2
-19 -7 -82 -11 -139 -3 -57 -7 -107 -10 -110 -2 -4 -43 -6 -92 -5 -48 1 -241
5 -428 9 -339 6 -425 9 -690 20 -192 8 -196 9 -194 53 1 15 -1 56 -5 92 -7 78
-14 224 -22 465 -3 99 -8 183 -10 187 -2 3 1 10 8 14 7 5 218 9 468 10 562 2
731 9 875 33 28 5 64 9 81 10 29 1 32 -2 37 -36z m1561 -637 c-10 -33 -134
-279 -150 -297 -8 -8 -14 -19 -14 -23 0 -10 -62 -100 -72 -104 -4 -2 -8 -8 -8
-14 0 -6 -13 -26 -30 -45 -16 -18 -30 -32 -30 -29 0 3 19 42 43 88 23 46 53
108 66 138 12 30 32 74 42 97 10 23 20 48 21 55 2 7 5 15 8 18 3 3 13 22 24
42 36 71 117 131 100 74z m-149 -73 c-34 -94 -87 -214 -186 -423 -44 -92 -56
-110 -97 -137 -60 -40 -135 -71 -352 -145 -202 -69 -206 -70 -202 -43 5 27 73
168 84 176 5 3 10 9 9 12 0 4 26 62 58 129 32 68 68 152 80 188 29 84 44 107
84 123 27 11 138 41 197 52 8 2 16 4 18 5 2 3 6 4 47 14 17 4 37 10 45 13 8 4
17 7 20 8 3 1 12 5 20 8 62 27 149 56 167 57 21 0 22 -1 8 -37z m-3615 -31
c19 -5 37 -9 40 -9 52 -7 135 -21 135 -23 0 -1 16 -3 36 -5 20 -1 49 -5 65 -9
28 -6 87 -15 129 -21 11 -1 47 -7 80 -13 33 -6 78 -14 100 -17 22 -3 56 -9 75
-12 19 -4 45 -7 58 -7 12 -1 22 -3 23 -6 0 -3 2 -41 4 -85 2 -44 6 -98 9 -120
15 -122 75 -398 114 -523 25 -77 15 -95 -45 -82 -46 10 -297 60 -333 66 -14 3
-38 9 -55 14 -16 5 -41 11 -55 14 -47 8 -211 57 -233 69 -36 20 -57 49 -94
127 -29 62 -90 228 -97 265 -1 6 -4 15 -8 20 -3 6 -23 77 -43 160 -33 130 -41
174 -36 208 1 9 72 3 131 -11z m910 -127 c30 -2 105 -6 165 -9 61 -3 155 -8
210 -11 55 -2 174 -7 265 -10 498 -17 610 -25 610 -43 0 -4 -7 -38 -15 -77 -8
-38 -17 -86 -20 -105 -3 -19 -12 -62 -20 -95 -7 -33 -16 -76 -19 -95 -6 -42
-84 -353 -96 -384 l-8 -22 -349 2 c-348 3 -543 9 -597 19 -37 8 -77 28 -97 51
-14 17 -38 75 -39 96 -1 4 -7 26 -15 48 -8 22 -12 40 -10 40 3 0 0 12 -6 26
-5 15 -12 43 -15 63 -3 20 -8 43 -11 51 -3 8 -7 22 -8 30 -3 25 -18 114 -22
130 -2 8 -5 29 -7 45 -4 33 -17 121 -21 145 -2 9 -6 41 -10 72 l-7 56 43 -10
c24 -5 69 -12 99 -13z m2070 -5 c12 -19 -34 -140 -126 -334 -13 -28 -24 -55
-24 -62 0 -7 -3 -14 -7 -16 -5 -1 -21 -30 -37 -63 -38 -77 -98 -165 -112 -165
-6 0 -17 -6 -23 -13 -6 -8 -30 -19 -53 -26 -23 -7 -53 -18 -67 -24 -14 -6 -28
-11 -31 -12 -3 0 -50 -16 -105 -34 -55 -18 -107 -34 -115 -36 -8 -2 -53 -13
-99 -25 -47 -12 -100 -23 -119 -26 -32 -4 -33 -3 -28 23 3 16 10 45 16 67 6
21 13 46 16 55 2 9 13 52 24 96 11 44 22 91 25 105 2 14 14 70 25 124 11 55
22 113 24 130 2 17 7 38 10 46 3 8 7 31 10 50 12 74 21 94 47 96 13 1 56 5 94
9 39 3 88 8 110 10 38 3 119 11 210 20 22 3 81 7 130 11 50 3 91 7 93 9 9 7
106 -5 112 -15z m290 -500 c0 -5 -4 -10 -8 -10 -7 0 -45 -58 -47 -70 0 -3 -7
-4 -15 -3 -13 1 -60 -27 -88 -54 -7 -7 -34 -29 -60 -50 -26 -21 -49 -40 -52
-43 -12 -12 -159 -110 -165 -110 -4 0 -19 -9 -34 -19 -14 -10 -34 -21 -44 -23
-10 -1 -35 -19 -56 -38 -34 -33 -108 -64 -173 -74 -26 -4 -83 -31 -200 -94
-31 -17 -76 -34 -100 -37 -71 -10 -205 -56 -234 -82 -21 -18 -39 -23 -81 -23
-35 0 -55 5 -59 13 -7 19 118 266 150 299 15 15 42 30 59 34 18 4 34 8 37 9 3
1 23 5 45 10 112 22 277 72 431 130 37 14 71 25 76 25 16 0 -55 -119 -104
-172 -26 -29 -46 -54 -44 -56 8 -7 81 46 104 74 12 16 32 48 43 71 24 49 81
103 140 134 88 44 425 167 467 168 6 1 12 -3 12 -9z m-2170 -375 c217 -18 362
-23 653 -25 114 -1 207 -4 207 -5 0 -2 -27 -60 -61 -129 -76 -157 -106 -186
-210 -201 -58 -9 -102 -12 -304 -20 -93 -4 -172 -8 -175 -10 -3 -2 -11 0 -18
4 -14 9 -230 384 -226 392 2 4 16 5 31 3 16 -2 62 -6 103 -9z"/>
<path d="M5277 7862 c-19 -48 -35 -61 -83 -68 -21 -2 -46 -11 -54 -20 -13 -14
-12 -17 9 -35 13 -10 31 -19 41 -19 10 0 23 -6 29 -14 14 -16 6 -37 -44 -116
-19 -30 -35 -67 -35 -82 0 -15 -13 -55 -29 -90 -31 -66 -74 -197 -86 -262 -6
-28 -4 -41 6 -47 19 -12 39 14 80 101 88 192 113 225 174 234 17 3 54 11 83
19 29 9 53 15 55 15 1 -1 13 3 27 7 73 23 212 152 231 214 11 37 10 44 -7 68
-24 32 -76 51 -158 59 -34 3 -72 7 -86 8 -38 4 -100 26 -100 36 0 5 -9 14 -19
19 -16 9 -21 5 -34 -27z m310 -113 c13 -5 23 -16 23 -26 0 -26 -92 -109 -157
-141 -59 -30 -196 -82 -215 -82 -29 0 44 205 86 239 7 6 40 14 72 17 32 4 60
7 61 8 6 5 109 -7 130 -15z"/>
<path d="M1623 7850 c-13 -32 -23 -42 -52 -50 -20 -5 -46 -10 -57 -10 -12 0
-28 -7 -35 -16 -11 -14 -10 -19 10 -35 13 -11 28 -19 35 -19 6 0 21 -7 33 -15
l22 -16 -27 -52 c-16 -29 -39 -81 -51 -117 -13 -36 -27 -74 -31 -85 -15 -35
-39 -108 -65 -197 -28 -94 -30 -163 -5 -163 18 0 29 22 86 176 46 129 83 187
119 194 11 2 21 4 23 5 4 4 16 6 82 14 36 4 83 16 105 26 75 33 225 196 225
245 0 55 -104 98 -243 99 -95 1 -100 2 -121 29 -12 15 -25 27 -30 27 -4 0 -15
-18 -23 -40z m344 -93 c20 -12 -26 -85 -78 -123 -64 -46 -210 -113 -266 -121
l-46 -6 7 34 c8 40 57 144 83 177 14 18 37 26 94 36 79 14 186 15 206 3z"/>
<path d="M2543 7847 c-30 -33 -66 -77 -95 -118 -186 -265 -243 -334 -293 -353
-11 -4 -44 -9 -75 -12 -153 -12 -180 -18 -180 -39 0 -17 61 -45 98 -45 17 0
43 5 58 10 15 6 34 8 42 5 15 -5 -10 -45 -65 -105 -33 -35 -70 -91 -77 -116
-5 -16 -2 -23 14 -27 24 -6 80 48 158 153 60 80 120 120 191 125 61 6 130 -8
143 -27 4 -7 6 -56 3 -109 -5 -78 -3 -98 9 -109 13 -10 17 -8 26 14 5 15 12
55 15 91 4 60 35 148 57 161 5 3 4 12 -3 20 -12 15 -15 108 -4 154 3 14 8 48
11 75 3 28 7 52 9 55 9 15 20 152 16 201 -2 30 -28 28 -58 -4z m-12 -199 c-6
-18 -20 -82 -30 -142 -11 -60 -26 -116 -34 -123 -14 -15 -147 -21 -167 -8 -20
13 -9 43 28 72 21 17 59 62 85 102 53 79 114 147 123 138 3 -3 1 -21 -5 -39z"/>
<path d="M6173 7852 c-40 -43 -53 -60 -53 -70 0 -4 -8 -17 -18 -28 -9 -10 -26
-32 -36 -49 -31 -50 -156 -213 -203 -265 -65 -72 -148 -97 -271 -79 -59 8 -69
-8 -31 -49 17 -18 34 -33 40 -33 5 -1 15 -2 22 -3 6 -1 32 4 57 11 24 7 48 9
52 5 5 -5 -15 -36 -43 -71 -90 -112 -111 -163 -70 -174 21 -5 38 10 91 88 100
146 164 192 260 190 102 -2 142 -22 134 -68 -12 -78 -12 -166 0 -176 10 -9 16
-5 24 16 15 41 20 62 28 118 7 60 38 135 55 135 8 0 5 7 -6 20 -24 27 -22 78
15 305 22 136 22 170 0 190 -19 17 -20 16 -47 -13z m-18 -214 c-3 -33 -15
-114 -19 -133 -5 -18 -20 -110 -21 -120 0 -16 -70 -22 -183 -16 -22 1 -20 5
29 69 130 166 184 232 191 232 3 0 5 -15 3 -32z"/>
<path d="M6682 7867 c-14 -16 -30 -60 -37 -95 -11 -61 -15 -78 -40 -154 -14
-44 -40 -110 -56 -146 -17 -37 -35 -76 -40 -87 -33 -75 -70 -188 -75 -232 -6
-50 -6 -52 20 -59 25 -6 140 0 196 10 14 3 79 14 145 26 131 23 185 37 185 50
0 20 -45 21 -260 5 -97 -7 -157 -9 -187 -6 -18 2 -12 19 81 237 81 190 122
315 130 394 5 53 -35 90 -62 57z"/>
<path d="M1396 2163 c-3 -21 -8 -66 -11 -100 -3 -34 -8 -70 -10 -80 -36 -175
-83 -258 -156 -269 -78 -13 -89 -45 -21 -63 69 -19 161 -125 207 -239 49 -122
65 -154 78 -149 6 2 13 12 13 23 4 64 15 144 24 174 6 19 13 44 15 54 6 28 27
89 34 101 3 6 6 16 7 23 4 23 36 64 53 69 22 6 48 49 53 88 3 32 4 32 -72 19
-61 -10 -136 62 -166 161 -13 43 -24 100 -30 155 -3 36 -8 66 -9 68 -2 2 -6
-14 -9 -35z m66 -295 c14 -18 35 -53 48 -77 l22 -45 -21 -65 c-20 -65 -35
-140 -33 -173 1 -33 -24 -18 -111 66 -79 77 -101 109 -79 118 4 2 24 25 44 51
37 49 53 86 62 142 2 17 5 31 5 33 3 9 42 -22 63 -50z"/>
<path d="M1770 1945 c0 -5 13 -44 30 -85 33 -83 70 -135 89 -129 9 3 0 29 -29
84 -40 78 -90 150 -90 130z"/>
<path d="M1980 1585 c0 -28 155 -253 167 -242 2 3 -11 33 -30 68 -47 90 -60
110 -79 133 -10 11 -18 23 -18 28 0 4 -9 12 -20 18 -16 9 -20 8 -20 -5z"/>
</g>
</svg>
